<?xml version="1.0" encoding="UTF-8" standalone="no"?>
<!-- Created with Inkscape (http://www.inkscape.org/) -->

<svg
   width="210mm"
   height="297mm"
   viewBox="0 0 210 297"
   version="1.1"
   id="svg8"
   inkscape:export-filename="C:\Users\Chafamaster\row.png"
   inkscape:export-xdpi="94.859482"
   inkscape:export-ydpi="94.859482"
   inkscape:version="1.2.2 (732a01da63, 2022-12-09)"
   sodipodi:docname="BkgIgons.svg"
   xmlns:inkscape="http://www.inkscape.org/namespaces/inkscape"
   xmlns:sodipodi="http://sodipodi.sourceforge.net/DTD/sodipodi-0.dtd"
   xmlns="http://www.w3.org/2000/svg"
   xmlns:svg="http://www.w3.org/2000/svg"
   xmlns:rdf="http://www.w3.org/1999/02/22-rdf-syntax-ns#"
   xmlns:cc="http://creativecommons.org/ns#"
   xmlns:dc="http://purl.org/dc/elements/1.1/">
  <defs
     id="defs2" />
  <sodipodi:namedview
     id="base"
     pagecolor="#ffffff"
     bordercolor="#666666"
     borderopacity="1.0"
     inkscape:pageopacity="0.0"
     inkscape:pageshadow="2"
     inkscape:zoom="0.49497475"
     inkscape:cx="183.84776"
     inkscape:cy="634.37579"
     inkscape:document-units="mm"
     inkscape:current-layer="layer1"
     showgrid="false"
     inkscape:window-width="1920"
     inkscape:window-height="1009"
     inkscape:window-x="-8"
     inkscape:window-y="-8"
     inkscape:window-maximized="1"
     inkscape:showpageshadow="2"
     inkscape:pagecheckerboard="0"
     inkscape:deskcolor="#d1d1d1" />
  <metadata
     id="metadata5">
    <rdf:RDF>
      <cc:Work
         rdf:about="">
        <dc:format>image/svg+xml</dc:format>
        <dc:type
           rdf:resource="http://purl.org/dc/dcmitype/StillImage" />
      </cc:Work>
    </rdf:RDF>
  </metadata>
  <g
     inkscape:label="Capa 1"
     inkscape:groupmode="layer"
     id="layer1">
    <rect
       inkscape:export-ydpi="96"
       inkscape:export-xdpi="96"
       y="217.625"
       x="0"
       height="79.375"
       width="79.375"
       id="rect826"
       style="fill:none;stroke:none;stroke-width:0.264583;stroke-miterlimit:4;stroke-dasharray:none" />
    <g
       id="g1738"
       transform="translate(8.0180858,-72.249966)">
      <g
         id="g1728">
        <path
           id="path1722"
           style="fill:#00ffff;stroke:#0000ff;stroke-width:0.186251;stroke-miterlimit:4;stroke-dasharray:none"
           d="m 113.42925,218.54325 a 8.3613825,8.3613825 0 0 0 -7.4414,4.55889 h -25.292 l -0.267168,7.60471 h 25.559168 a 8.3613825,8.3613825 0 0 0 7.4414,4.55889 8.3613825,8.3613825 0 0 0 8.36125,-8.36124 8.3613825,8.3613825 0 0 0 -8.36125,-8.36125 z m 0,5.9986 a 2.3624117,2.3624117 0 0 1 2.36213,2.36265 2.3624117,2.3624117 0 0 1 -2.36213,2.36264 2.3624117,2.3624117 0 0 1 -2.36264,-2.36264 2.3624117,2.3624117 0 0 1 2.36264,-2.36265 z" />
        <path
           id="path1724"
           style="fill:#00ffff;stroke:#0000ff;stroke-width:0.186251;stroke-miterlimit:4;stroke-dasharray:none"
           d="m 113.42925,241.7957 a 8.3613825,8.3613825 0 0 0 -7.4414,4.55889 h -25.292 l -0.267168,7.60471 h 25.559168 a 8.3613825,8.3613825 0 0 0 7.4414,4.55889 8.3613825,8.3613825 0 0 0 8.36125,-8.36124 8.3613825,8.3613825 0 0 0 -8.36125,-8.36125 z m 0,5.9986 a 2.3624117,2.3624117 0 0 1 2.36213,2.36265 2.3624117,2.3624117 0 0 1 -2.36213,2.36264 2.3624117,2.3624117 0 0 1 -2.36264,-2.36264 2.3624117,2.3624117 0 0 1 2.36264,-2.36265 z" />
        <path
           id="path1726"
           style="fill:#00ffff;stroke:#0000ff;stroke-width:0.186251;stroke-miterlimit:4;stroke-dasharray:none"
           d="m 113.42925,265.04815 a 8.3613825,8.3613825 0 0 0 -7.4414,4.55889 h -25.292 l -0.267168,7.60471 h 25.559168 a 8.3613825,8.3613825 0 0 0 7.4414,4.55889 8.3613825,8.3613825 0 0 0 8.36125,-8.36124 8.3613825,8.3613825 0 0 0 -8.36125,-8.36125 z m 0,5.9986 a 2.3624117,2.3624117 0 0 1 2.36213,2.36265 2.3624117,2.3624117 0 0 1 -2.36213,2.36264 2.3624117,2.3624117 0 0 1 -2.36264,-2.36264 2.3624117,2.3624117 0 0 1 2.36264,-2.36265 z" />
      </g>
      <g
         id="g1736"
         transform="matrix(-1,0,0,1,260.48061,0)">
        <path
           id="path1730"
           style="fill:#00ffff;stroke:#0000ff;stroke-width:0.186251;stroke-miterlimit:4;stroke-dasharray:none"
           d="m 113.42925,218.54325 a 8.3613825,8.3613825 0 0 0 -7.4414,4.55889 h -25.292 l -0.267168,7.60471 h 25.559168 a 8.3613825,8.3613825 0 0 0 7.4414,4.55889 8.3613825,8.3613825 0 0 0 8.36125,-8.36124 8.3613825,8.3613825 0 0 0 -8.36125,-8.36125 z m 0,5.9986 a 2.3624117,2.3624117 0 0 1 2.36213,2.36265 2.3624117,2.3624117 0 0 1 -2.36213,2.36264 2.3624117,2.3624117 0 0 1 -2.36264,-2.36264 2.3624117,2.3624117 0 0 1 2.36264,-2.36265 z" />
        <path
           id="path1732"
           style="fill:#00ffff;stroke:#0000ff;stroke-width:0.186251;stroke-miterlimit:4;stroke-dasharray:none"
           d="m 113.42925,241.7957 a 8.3613825,8.3613825 0 0 0 -7.4414,4.55889 h -25.292 l -0.267168,7.60471 h 25.559168 a 8.3613825,8.3613825 0 0 0 7.4414,4.55889 8.3613825,8.3613825 0 0 0 8.36125,-8.36124 8.3613825,8.3613825 0 0 0 -8.36125,-8.36125 z m 0,5.9986 a 2.3624117,2.3624117 0 0 1 2.36213,2.36265 2.3624117,2.3624117 0 0 1 -2.36213,2.36264 2.3624117,2.3624117 0 0 1 -2.36264,-2.36264 2.3624117,2.3624117 0 0 1 2.36264,-2.36265 z" />
        <path
           id="path1734"
           style="fill:#00ffff;stroke:#0000ff;stroke-width:0.186251;stroke-miterlimit:4;stroke-dasharray:none"
           d="m 113.42925,265.04815 a 8.3613825,8.3613825 0 0 0 -7.4414,4.55889 h -25.292 l -0.267168,7.60471 h 25.559168 a 8.3613825,8.3613825 0 0 0 7.4414,4.55889 8.3613825,8.3613825 0 0 0 8.36125,-8.36124 8.3613825,8.3613825 0 0 0 -8.36125,-8.36125 z m 0,5.9986 a 2.3624117,2.3624117 0 0 1 2.36213,2.36265 2.3624117,2.3624117 0 0 1 -2.36213,2.36264 2.3624117,2.3624117 0 0 1 -2.36264,-2.36264 2.3624117,2.3624117 0 0 1 2.36264,-2.36265 z" />
      </g>
    </g>
    <g
       id="g1566"
       transform="translate(8.0180858)"
       inkscape:export-filename="PieceSocket.png"
       inkscape:export-xdpi="152.68069"
       inkscape:export-ydpi="152.68069">
      <g
         id="g1556">
        <path
           id="path1550"
           style="fill:#00ffff;stroke:#0000ff;stroke-width:0.186251;stroke-miterlimit:4;stroke-dasharray:none"
           d="m 113.42925,218.54325 a 8.3613825,8.3613825 0 0 0 -7.4414,4.55889 h -25.292 l -0.267168,7.60471 h 25.559168 a 8.3613825,8.3613825 0 0 0 7.4414,4.55889 8.3613825,8.3613825 0 0 0 8.36125,-8.36124 8.3613825,8.3613825 0 0 0 -8.36125,-8.36125 z m 0,5.9986 a 2.3624117,2.3624117 0 0 1 2.36213,2.36265 2.3624117,2.3624117 0 0 1 -2.36213,2.36264 2.3624117,2.3624117 0 0 1 -2.36264,-2.36264 2.3624117,2.3624117 0 0 1 2.36264,-2.36265 z" />
        <path
           id="path1552"
           style="fill:#00ffff;stroke:#0000ff;stroke-width:0.186251;stroke-miterlimit:4;stroke-dasharray:none"
           d="m 113.42925,241.7957 a 8.3613825,8.3613825 0 0 0 -7.4414,4.55889 h -25.292 l -0.267168,7.60471 h 25.559168 a 8.3613825,8.3613825 0 0 0 7.4414,4.55889 8.3613825,8.3613825 0 0 0 8.36125,-8.36124 8.3613825,8.3613825 0 0 0 -8.36125,-8.36125 z m 0,5.9986 a 2.3624117,2.3624117 0 0 1 2.36213,2.36265 2.3624117,2.3624117 0 0 1 -2.36213,2.36264 2.3624117,2.3624117 0 0 1 -2.36264,-2.36264 2.3624117,2.3624117 0 0 1 2.36264,-2.36265 z" />
        <path
           id="path1554"
           style="fill:#00ffff;stroke:#0000ff;stroke-width:0.186251;stroke-miterlimit:4;stroke-dasharray:none"
           d="m 113.42925,265.04815 a 8.3613825,8.3613825 0 0 0 -7.4414,4.55889 h -25.292 l -0.267168,7.60471 h 25.559168 a 8.3613825,8.3613825 0 0 0 7.4414,4.55889 8.3613825,8.3613825 0 0 0 8.36125,-8.36124 8.3613825,8.3613825 0 0 0 -8.36125,-8.36125 z m 0,5.9986 a 2.3624117,2.3624117 0 0 1 2.36213,2.36265 2.3624117,2.3624117 0 0 1 -2.36213,2.36264 2.3624117,2.3624117 0 0 1 -2.36264,-2.36264 2.3624117,2.3624117 0 0 1 2.36264,-2.36265 z" />
      </g>
      <g
         id="g1548"
         transform="matrix(-1,0,0,1,260.48061,0)">
        <path
           id="path1541"
           style="fill:#00ffff;stroke:#0000ff;stroke-width:0.186251;stroke-miterlimit:4;stroke-dasharray:none"
           d="m 113.42925,218.54325 a 8.3613825,8.3613825 0 0 0 -7.4414,4.55889 h -25.292 l -0.267168,7.60471 h 25.559168 a 8.3613825,8.3613825 0 0 0 7.4414,4.55889 8.3613825,8.3613825 0 0 0 8.36125,-8.36124 8.3613825,8.3613825 0 0 0 -8.36125,-8.36125 z m 0,5.9986 a 2.3624117,2.3624117 0 0 1 2.36213,2.36265 2.3624117,2.3624117 0 0 1 -2.36213,2.36264 2.3624117,2.3624117 0 0 1 -2.36264,-2.36264 2.3624117,2.3624117 0 0 1 2.36264,-2.36265 z" />
        <path
           id="path1543"
           style="fill:#00ffff;stroke:#0000ff;stroke-width:0.186251;stroke-miterlimit:4;stroke-dasharray:none"
           d="m 113.42925,241.7957 a 8.3613825,8.3613825 0 0 0 -7.4414,4.55889 h -25.292 l -0.267168,7.60471 h 25.559168 a 8.3613825,8.3613825 0 0 0 7.4414,4.55889 8.3613825,8.3613825 0 0 0 8.36125,-8.36124 8.3613825,8.3613825 0 0 0 -8.36125,-8.36125 z m 0,5.9986 a 2.3624117,2.3624117 0 0 1 2.36213,2.36265 2.3624117,2.3624117 0 0 1 -2.36213,2.36264 2.3624117,2.3624117 0 0 1 -2.36264,-2.36264 2.3624117,2.3624117 0 0 1 2.36264,-2.36265 z" />
        <path
           id="path405"
           style="fill:#00ffff;stroke:#0000ff;stroke-width:0.186251;stroke-miterlimit:4;stroke-dasharray:none"
           d="m 113.42925,265.04815 a 8.3613825,8.3613825 0 0 0 -7.4414,4.55889 h -25.292 l -0.267168,7.60471 h 25.559168 a 8.3613825,8.3613825 0 0 0 7.4414,4.55889 8.3613825,8.3613825 0 0 0 8.36125,-8.36124 8.3613825,8.3613825 0 0 0 -8.36125,-8.36125 z m 0,5.9986 a 2.3624117,2.3624117 0 0 1 2.36213,2.36265 2.3624117,2.3624117 0 0 1 -2.36213,2.36264 2.3624117,2.3624117 0 0 1 -2.36264,-2.36264 2.3624117,2.3624117 0 0 1 2.36264,-2.36265 z" />
      </g>
    </g>
    <g
       id="g1720"
       transform="translate(0,-23.328326)">
      <g
         aria-label="U"
         id="g1710"
         style="font-size:22.5778px;fill:#666666;stroke:none;stroke-width:0.1">
        <path
           d="m 43.464554,203.32994 c 0,2.02847 -0.617362,3.5829 -1.852085,4.66329 -1.234724,1.08038 -3.053736,1.62057 -5.457037,1.62057 -2.403301,0 -4.222314,-0.54019 -5.457037,-1.62057 -1.227374,-1.08039 -1.841061,-2.63114 -1.841061,-4.65226 v -7.35323 h 4.255386 v 7.11069 c 0,1.13918 0.23886,1.98805 0.716581,2.54662 0.477721,0.55857 1.253098,0.83785 2.326131,0.83785 1.058334,0 1.830036,-0.26826 2.315106,-0.80478 0.49242,-0.53651 0.73863,-1.39641 0.73863,-2.57969 v -7.11069 h 4.255386 z"
           style="font-weight:bold;-inkscape-font-specification:'sans-serif Bold';fill:#666666;stroke:none"
           id="path1708"
           sodipodi:nodetypes="ssscsccssscsccs" />
      </g>
      <g
         aria-label="U"
         id="g1714"
         style="font-size:22.5778px;fill:#666666;stroke:none;stroke-width:0.1"
         transform="translate(0,-3.1309)">
        <path
           d="m 28.857334,199.12964 v -3.14193 h 4.255386 v 3.14193 z"
           style="font-weight:bold;-inkscape-font-specification:'sans-serif Bold';fill:#0000ff;stroke:none"
           id="path1712"
           sodipodi:nodetypes="ccccc" />
      </g>
      <g
         aria-label="U"
         id="g1718"
         style="font-size:22.5778px;fill:#666666;stroke:none;stroke-width:0.1"
         transform="translate(0,-3.1309)">
        <path
           d="m 39.209168,199.11864 v -3.1309 h 4.255386 v 3.1309 z"
           style="font-weight:bold;-inkscape-font-specification:'sans-serif Bold';fill:#ff0000;stroke:none"
           id="path1716"
           sodipodi:nodetypes="ccccc" />
      </g>
    </g>
    <g
       id="g1706"
       transform="matrix(1.2108833,0,0,1.2108833,94.471711,6.4844774)">
      <g
         aria-label="U"
         id="g1694"
         style="font-size:22.5778px;fill:#666666;stroke:none;stroke-width:0.1">
        <path
           d="m 43.464554,203.32994 c 0,2.02847 -0.617362,3.5829 -1.852085,4.66329 -1.234724,1.08038 -3.053736,1.62057 -5.457037,1.62057 -2.403301,0 -4.222314,-0.54019 -5.457037,-1.62057 -1.227374,-1.08039 -1.841061,-2.63114 -1.841061,-4.65226 v -7.35323 h 4.255386 v 7.11069 c 0,1.13918 0.23886,1.98805 0.716581,2.54662 0.477721,0.55857 1.253098,0.83785 2.326131,0.83785 1.058334,0 1.830036,-0.26826 2.315106,-0.80478 0.49242,-0.53651 0.73863,-1.39641 0.73863,-2.57969 v -7.11069 h 4.255386 z"
           style="font-weight:bold;-inkscape-font-specification:'sans-serif Bold';fill:#666666;stroke:none"
           id="path1692"
           sodipodi:nodetypes="ssscsccssscsccs" />
      </g>
      <g
         aria-label="U"
         id="g1698"
         style="font-size:22.5778px;fill:#666666;stroke:none;stroke-width:0.1"
         transform="translate(0,-3.1309)">
        <path
           d="m 28.857334,199.12964 v -3.14193 h 4.255386 v 3.14193 z"
           style="font-weight:bold;-inkscape-font-specification:'sans-serif Bold';fill:#0000ff;stroke:none"
           id="path1696"
           sodipodi:nodetypes="ccccc" />
      </g>
      <g
         aria-label="U"
         id="text1637"
         style="font-size:22.5778px;fill:#666666;stroke:none;stroke-width:0.1"
         transform="translate(0,-3.1309)">
        <path
           d="m 39.209168,199.11864 v -3.1309 h 4.255386 v 3.1309 z"
           style="font-weight:bold;-inkscape-font-specification:'sans-serif Bold';fill:#ff0000;stroke:none"
           id="path1689"
           sodipodi:nodetypes="ccccc" />
      </g>
    </g>
  </g>
</svg>
